<svg width="834" height="103" viewBox="0 0 834 103" fill="none" xmlns="http://www.w3.org/2000/svg">
<g clip-path="url(#clip0_1_26)">
<g clip-path="url(#clip1_1_26)">
<g clip-path="url(#clip2_1_26)">
<g clip-path="url(#clip3_1_26)">
<g clip-path="url(#clip4_1_26)">
<g clip-path="url(#clip5_1_26)">
<g clip-path="url(#clip6_1_26)">
<path d="M46.6412 28.6939C44.9602 26.6896 42.7942 24.9762 40.1433 23.5538C37.4925 22.1314 34.1627 21.4202 30.1541 21.4202C25.3049 21.4202 21.4902 22.487 18.7101 24.6206C15.9299 26.7542 14.5398 29.7284 14.5398 33.5431C14.5398 34.5775 14.779 35.7737 15.2575 37.1314C15.7488 38.4892 16.7381 39.8146 18.2251 41.1078C19.7122 42.4009 21.9428 43.5647 24.917 44.5991L38.9795 49.2543C44.8632 51.194 49.0335 53.7608 51.4904 56.9548C53.9473 60.1617 55.1757 63.9311 55.1757 68.263C55.1757 72.401 54.1413 75.97 52.0723 78.97C50.0033 81.9829 47.0615 84.2782 43.2468 85.8558C39.4321 87.4463 34.8416 88.2416 29.4752 88.2416C25.5959 88.2416 22.0075 87.7696 18.7101 86.8256C15.4126 85.8946 12.4902 84.5368 9.94277 82.7523C7.38242 80.9808 5.19706 78.7696 3.38671 76.1187C3.06343 75.6661 2.95352 75.2588 3.05697 74.8967C3.14748 74.5476 3.45136 74.179 3.96861 73.7911L7.46 71.3665C8.10656 70.9786 8.61087 70.7846 8.97294 70.7846C9.32208 70.7846 9.62596 70.9786 9.88458 71.3665C11.6303 73.5648 13.3437 75.3881 15.0247 76.8364C16.7057 78.2976 18.6648 79.3838 20.9019 80.095C23.126 80.8062 25.8545 81.1618 29.0873 81.1618C34.195 81.1618 38.333 80.2372 41.5011 78.3881C44.6692 76.5519 46.2533 73.5001 46.2533 69.2329C46.2533 67.6165 45.93 66.1423 45.2835 64.8104C44.6369 63.4915 43.5378 62.263 41.986 61.1251C40.4343 60.0001 38.2037 58.888 35.2942 57.7889L20.5527 52.7457C16.9967 51.5173 14.1195 49.9332 11.9212 47.9936C9.72295 46.0539 8.12596 43.9203 7.13026 41.5927C6.12164 39.2651 5.61732 36.8728 5.61732 34.4159C5.61732 30.3426 6.65181 26.7995 8.72078 23.7865C10.7898 20.7865 13.654 18.4589 17.3135 16.8038C20.9601 15.1615 25.2403 14.3404 30.1541 14.3404C33.4515 14.3404 36.4774 14.7283 39.2317 15.5042C41.9731 16.28 44.4947 17.3792 46.7964 18.8016C49.0852 20.224 51.1024 21.9374 52.8481 23.9417C53.1068 24.2003 53.2684 24.4913 53.3331 24.8146C53.3977 25.1378 53.2361 25.4611 52.8481 25.7844L48.3869 29.2758C48.0636 29.4698 47.805 29.515 47.611 29.4116C47.4171 29.3211 47.0938 29.0818 46.6412 28.6939ZM112.202 53.6186H80.0034C79.4862 53.6186 79.2276 53.8772 79.2276 54.3944V85.817C79.2276 86.7868 78.678 87.2718 77.5789 87.2718H71.2749C70.7577 87.2718 70.4021 87.1554 70.2081 86.9226C70.0142 86.7028 69.9172 86.3666 69.9172 85.914V16.668C69.9172 15.7628 70.3051 15.3102 71.081 15.3102H78.0638C78.8396 15.3102 79.2276 15.7305 79.2276 16.571V45.0841C79.2276 45.8599 79.5832 46.2479 80.2944 46.2479H112.105C112.751 46.2479 113.075 45.8599 113.075 45.0841V16.474C113.075 15.6981 113.43 15.3102 114.142 15.3102H121.221C121.997 15.3102 122.385 15.7628 122.385 16.668V85.914C122.385 86.3666 122.288 86.7028 122.094 86.9226C121.9 87.1554 121.545 87.2718 121.027 87.2718H114.723C113.624 87.2718 113.075 86.7868 113.075 85.817V54.4914C113.075 53.9095 112.784 53.6186 112.202 53.6186ZM168.84 88.2416C162.504 88.2416 157.021 86.8192 152.392 83.9743C147.775 81.1295 144.239 76.9721 141.782 71.5023C139.325 66.0454 138.096 59.4052 138.096 51.5819C138.096 43.694 139.357 36.9698 141.879 31.4094C144.4 25.8491 147.956 21.6141 152.547 18.7046C157.137 15.7951 162.601 14.3404 168.937 14.3404C175.273 14.3404 180.717 15.7951 185.269 18.7046C189.834 21.6141 193.357 25.8167 195.84 31.3124C198.336 36.8082 199.584 43.5323 199.584 51.485C199.584 59.3083 198.355 65.9484 195.898 71.4053C193.441 76.8752 189.898 81.0454 185.269 83.9161C180.653 86.7998 175.176 88.2416 168.84 88.2416ZM169.034 81.1618C176.017 81.1618 181.235 78.7502 184.687 73.9269C188.153 69.1165 189.885 61.6682 189.885 51.5819C189.885 41.3017 188.12 33.7047 184.59 28.7909C181.073 23.8771 175.855 21.4202 168.937 21.4202C161.954 21.4202 156.685 23.89 153.129 28.8297C149.573 33.7823 147.795 41.3664 147.795 51.5819C147.795 61.6035 149.573 69.0389 153.129 73.8881C156.685 78.7372 161.987 81.1618 169.034 81.1618ZM267.55 36.2586C267.55 41.0431 266.45 44.9871 264.252 48.0905C262.054 51.194 259.047 53.4893 255.233 54.9763C251.418 56.4634 246.989 57.207 241.946 57.207H225.459C224.877 57.207 224.586 57.4979 224.586 58.0798V85.817C224.586 86.7868 224.101 87.2718 223.131 87.2718H216.536C216.084 87.2718 215.761 87.1748 215.567 86.9808C215.373 86.7868 215.276 86.4636 215.276 86.011V16.668C215.276 15.7628 215.664 15.3102 216.439 15.3102H240.879C245.987 15.3102 250.545 16.0214 254.554 17.4438C258.562 18.8663 261.731 21.1292 264.058 24.2327C266.386 27.3361 267.55 31.3448 267.55 36.2586ZM258.045 35.9676C258.045 32.6702 257.321 30.0193 255.873 28.015C254.412 26.0107 252.375 24.5753 249.763 23.709C247.138 22.8296 244.015 22.39 240.394 22.39H225.847C225.006 22.39 224.586 22.7779 224.586 23.5538V48.7694C224.586 49.6746 224.877 50.1272 225.459 50.1272H241.073C246.181 50.1272 250.287 48.9957 253.39 46.7328C256.494 44.4698 258.045 40.8815 258.045 35.9676ZM334.468 36.2586C334.468 41.0431 333.369 44.9871 331.171 48.0905C328.972 51.194 325.966 53.4893 322.151 54.9763C318.336 56.4634 313.908 57.207 308.864 57.207H292.377C291.795 57.207 291.504 57.4979 291.504 58.0798V85.817C291.504 86.7868 291.02 87.2718 290.05 87.2718H283.455C283.002 87.2718 282.679 87.1748 282.485 86.9808C282.291 86.7868 282.194 86.4636 282.194 86.011V16.668C282.194 15.7628 282.582 15.3102 283.358 15.3102H307.798C312.905 15.3102 317.464 16.0214 321.472 17.4438C325.481 18.8663 328.649 21.1292 330.977 24.2327C333.304 27.3361 334.468 31.3448 334.468 36.2586ZM324.964 35.9676C324.964 32.6702 324.24 30.0193 322.791 28.015C321.33 26.0107 319.293 24.5753 316.681 23.709C314.056 22.8296 310.933 22.39 307.313 22.39H292.765C291.925 22.39 291.504 22.7779 291.504 23.5538V48.7694C291.504 49.6746 291.795 50.1272 292.377 50.1272H307.992C313.099 50.1272 317.205 48.9957 320.308 46.7328C323.412 44.4698 324.964 40.8815 324.964 35.9676ZM350.276 15.3102H357.259C358.035 15.3102 358.423 15.7305 358.423 16.571V85.623C358.423 86.2696 358.294 86.7028 358.035 86.9226C357.776 87.1554 357.324 87.2718 356.677 87.2718H350.567C349.985 87.2718 349.597 87.1748 349.403 86.9808C349.209 86.7868 349.112 86.4312 349.112 85.914V16.668C349.112 15.7628 349.5 15.3102 350.276 15.3102ZM377.238 16.668C377.238 15.7628 377.626 15.3102 378.401 15.3102H421.947C422.593 15.3102 422.917 15.6658 422.917 16.377V21.3232C422.917 22.099 422.496 22.487 421.656 22.487H387.809C386.968 22.487 386.548 22.8749 386.548 23.6508V46.3448C386.548 47.0561 386.904 47.4117 387.615 47.4117H412.733C413.445 47.4117 413.8 47.7673 413.8 48.4785V53.6186C413.8 53.8772 413.736 54.0841 413.606 54.2393C413.477 54.4074 413.186 54.4914 412.733 54.4914H387.615C386.904 54.4914 386.548 54.847 386.548 55.5582V79.1252C386.548 79.7717 386.871 80.095 387.518 80.095H423.111C423.822 80.095 424.177 80.4183 424.177 81.0648V86.2049C424.177 86.5282 424.093 86.7868 423.925 86.9808C423.77 87.1748 423.499 87.2718 423.111 87.2718H378.595C377.69 87.2718 377.238 86.8192 377.238 85.914V16.668ZM486.13 14.3404C489.363 14.3404 492.486 14.877 495.499 15.9503C498.499 17.0107 501.195 18.446 503.587 20.2564C505.98 22.0667 507.952 24.168 509.503 26.5603C511.055 28.9525 512.025 31.5064 512.413 34.2219C512.542 34.8038 512.561 35.1918 512.471 35.3857C512.367 35.5797 512.122 35.6767 511.734 35.6767L504.46 36.2586C504.137 36.3232 503.911 36.2586 503.781 36.0646C503.652 35.8707 503.555 35.612 503.49 35.2888C502.585 31.1508 500.633 27.8017 497.633 25.2413C494.62 22.6939 490.883 21.4202 486.421 21.4202C479.697 21.4202 474.525 23.9094 470.904 28.8879C467.283 33.8663 465.473 41.3664 465.473 51.388C465.473 61.0863 467.251 68.4247 470.807 73.4032C474.363 78.3816 479.729 80.8709 486.906 80.8709C491.497 80.8709 495.331 79.7717 498.408 77.5734C501.473 75.3752 503.943 71.8514 505.818 67.0023C506.012 66.6143 506.4 66.485 506.982 66.6143L512.704 67.9721C512.898 68.0368 513.059 68.1661 513.189 68.36C513.318 68.554 513.318 68.8773 513.189 69.3299C512.671 71.2049 511.883 73.0476 510.822 74.8579C509.749 76.6683 508.436 78.3622 506.885 79.9398C505.333 81.5304 503.523 82.9528 501.454 84.2071C499.385 85.4743 497.109 86.4636 494.626 87.1748C492.13 87.886 489.428 88.2416 486.518 88.2416C480.117 88.2416 474.609 86.7545 469.992 83.7804C465.363 80.8062 461.839 76.5389 459.421 70.9786C456.99 65.4182 455.775 58.8233 455.775 51.194C455.775 43.5647 456.99 36.9827 459.421 31.4482C461.839 25.9266 465.331 21.6917 469.895 18.7434C474.447 15.8081 479.859 14.3404 486.13 14.3404ZM521.141 87.2718C520.753 87.2718 520.475 87.1231 520.307 86.8256C520.152 86.5412 520.139 86.1403 520.268 85.623L545.387 16.668C545.581 16.2154 545.807 15.8727 546.066 15.64C546.325 15.4201 546.745 15.3102 547.327 15.3102H554.891C556.055 15.3102 556.799 15.7951 557.122 16.765L581.95 85.623C582.079 86.011 582.06 86.3795 581.892 86.7287C581.736 87.0907 581.432 87.2718 580.98 87.2718H574.094C573.318 87.2718 572.801 86.9485 572.542 86.3019L565.85 67.4872C565.721 67.2286 565.592 67.0346 565.463 66.9053C565.333 66.776 565.075 66.7113 564.687 66.7113H536.465C535.883 66.7113 535.495 66.9699 535.301 67.4872L528.415 86.3989C528.35 86.6575 528.202 86.8644 527.969 87.0196C527.749 87.1877 527.413 87.2718 526.96 87.2718H521.141ZM538.695 59.3406H562.165C562.941 59.3406 563.2 58.9203 562.941 58.0798L551.303 26.1723C551.044 25.5904 550.799 25.2995 550.566 25.2995C550.346 25.2995 550.139 25.5904 549.945 26.1723L538.113 58.2738C537.79 58.985 537.984 59.3406 538.695 59.3406ZM647.122 85.4291C647.316 85.8817 647.297 86.3019 647.064 86.6899C646.844 87.0778 646.508 87.2718 646.056 87.2718H638.976C638.265 87.2718 637.747 86.8838 637.424 86.108L624.913 55.5582C624.59 54.847 623.814 54.4914 622.586 54.4914H606.196C605.743 54.4914 605.433 54.5884 605.264 54.7824C605.109 54.9763 605.032 55.235 605.032 55.5582V85.72C605.032 86.7545 604.482 87.2718 603.383 87.2718H597.079C596.562 87.2718 596.206 87.1554 596.012 86.9226C595.818 86.7028 595.721 86.3989 595.721 86.011V16.668C595.721 15.7628 596.109 15.3102 596.885 15.3102H623.943C631.573 15.3102 637.502 16.8749 641.73 20.0042C645.972 23.1465 648.092 27.7887 648.092 33.931C648.092 37.6164 647.381 40.7327 645.959 43.2802C644.536 45.8405 642.739 47.8772 640.566 49.3901C638.407 50.916 636.196 52.0345 633.933 52.7457C633.415 52.8104 633.286 53.1337 633.545 53.7156L647.122 85.4291ZM621.228 47.7026C626.918 47.7026 631.198 46.6681 634.068 44.5991C636.952 42.5302 638.394 39.2651 638.394 34.8038C638.394 30.4719 637.114 27.2715 634.553 25.2025C632.006 23.1335 628.308 22.099 623.459 22.099H606.389C605.484 22.099 605.032 22.4546 605.032 23.1659V46.4418C605.032 47.2823 605.323 47.7026 605.905 47.7026H621.228ZM656.898 21.4202V16.377C656.898 16.0538 656.982 15.7951 657.15 15.6012C657.306 15.4072 657.61 15.3102 658.062 15.3102H710.239C710.627 15.3102 710.918 15.4072 711.112 15.6012C711.306 15.7951 711.403 16.0538 711.403 16.377V21.4202C711.403 22.0667 711.015 22.39 710.239 22.39H690.551C689.84 22.39 689.485 22.7133 689.485 23.3598V86.011C689.485 86.8515 689.097 87.2718 688.321 87.2718H681.338C680.562 87.2718 680.174 86.8515 680.174 86.011V23.4568C680.174 22.7456 679.851 22.39 679.204 22.39H658.062C657.286 22.39 656.898 22.0667 656.898 21.4202Z" fill="white"/>
</g>
</g>
</g>
</g>
<g clip-path="url(#clip7_1_26)">
<path d="M756.797 0.22525H728.881V102.357H756.797V0.22525Z" fill="#FAFF00"/>
<path d="M790.841 0.225266H762.925V102.357H790.841V0.225266Z" fill="#FAFF00" fill-opacity="0.75"/>
<path d="M824.885 0.225266H796.969V102.357H824.885V0.225266Z" fill="#FAFF00" fill-opacity="0.5"/>
</g>
</g>
</g>
</g>
<defs>
<clipPath id="clip0_1_26">
<rect width="834" height="102.582" fill="white"/>
</clipPath>
<clipPath id="clip1_1_26">
<rect width="828.025" height="102.131" fill="white" transform="translate(2.98743 0.225266)"/>
</clipPath>
<clipPath id="clip2_1_26">
<rect width="828.025" height="102.131" fill="white" transform="translate(2.98743 0.225266)"/>
</clipPath>
<clipPath id="clip3_1_26">
<rect width="708.447" height="73.9012" fill="white" transform="translate(2.98743 14.3404)"/>
</clipPath>
<clipPath id="clip4_1_26">
<rect width="708.447" height="73.9012" fill="white" transform="translate(2.98743 14.3404)"/>
</clipPath>
<clipPath id="clip5_1_26">
<rect width="708.447" height="73.9012" fill="white" transform="translate(2.98743 14.3404)"/>
</clipPath>
<clipPath id="clip6_1_26">
<rect width="708.447" height="73.9012" fill="white" transform="translate(2.98743 14.3404)"/>
</clipPath>
<clipPath id="clip7_1_26">
<rect width="102.131" height="102.131" fill="white" transform="translate(728.881 0.22525)"/>
</clipPath>
</defs>
</svg>
